<?xml version="1.0"?>
<svg width="290" height="60" xmlns="http://www.w3.org/2000/svg" xmlns:svg="http://www.w3.org/2000/svg">
 <style type="text/css">.st0{fill:#7FCFF5;}</style>
 <g>
  <title>background</title>
  <rect x="-1" y="-1" width="280" height="60" id="canvas_background" fill="none"/>
 </g>
 <g>
  <title>Layer 1</title>
  <path d="m84.7,30c0,-4.7 3.8,-8.6 8.4,-8.6c4.5,0 8.3,3.8 8.3,8.6c0,4.7 -3.8,8.6 -8.3,8.6c-4.6,-0.1 -8.4,-3.9 -8.4,-8.6zm16.4,22.3l5.7,0l0,-35.5l-5.7,0l0,3.2l-0.1,0c-2,-2.5 -5.1,-3.9 -8.7,-3.9c-8.7,0 -13.7,7.1 -13.7,13.9c0,6.5 5.4,13.9 14,13.9c3.9,0 6.9,-1.7 8.4,-3.9l0.1,0l0,12.3z" id="svg_1"/>
  <path d="m118.1,30c0,-4.7 3.8,-8.6 8.4,-8.6c4.5,0 8.3,3.8 8.3,8.6c0,4.7 -3.8,8.6 -8.3,8.6c-4.6,-0.1 -8.4,-3.9 -8.4,-8.6zm16.4,13.2l5.7,0l0,-26.4l-5.7,0l0,3.2l-0.1,0c-1.5,-2.2 -4.5,-3.9 -8.4,-3.9c-8.6,0 -14,7.4 -14,13.9c0,6.8 5,13.9 13.7,13.9c3.6,0 6.9,-1.5 8.7,-3.9l0.1,0l0,3.2z" id="svg_2" stroke="null"/>
  <path d="m147.4,26.7c0,-6.7 4.5,-10.6 9.7,-10.6c4,0 6.9,1.9 7.9,4.7l0.1,0c1,-2.8 3.9,-4.7 7.9,-4.7c5.2,0 9.7,3.9 9.7,10.6l0,16.5l-5.7,0l0,-16.5c0,-3.2 -2,-5 -4.4,-5c-2.7,0 -4.7,1.6 -4.7,5.7l0,15.7l-5.7,0l0,-15.7c0,-4.1 -2,-5.7 -4.7,-5.7c-2.3,0 -4.4,1.8 -4.4,5l0,16.5l-5.7,0l0,-16.5z" id="svg_3"/>
  <path d="m209.4,25.4c-1.5,-2.3 -3.7,-4 -6.9,-4c-5,0 -8.6,3.8 -8.6,8.6c0,4.7 3.6,8.6 8.6,8.6c3.1,0 5.3,-1.6 6.9,-4l5,2.9c-2.3,3.7 -6.8,6.4 -11.8,6.4c-9.2,0 -14.6,-6.9 -14.6,-13.9c0,-7 5.3,-13.9 14.6,-13.9c5.6,0 9.3,2.7 11.8,6.4l-5,2.9z" id="svg_4"/>
  <path d="m223.2,30c0,-4.7 3.6,-8.6 8.6,-8.6c5,0 8.6,3.8 8.6,8.6c0,4.7 -3.6,8.6 -8.6,8.6c-5,-0.1 -8.6,-3.9 -8.6,-8.6zm-6,0c0,7 5.3,13.9 14.6,13.9c9.2,0 14.6,-6.9 14.6,-13.9c0,-7 -5.3,-13.9 -14.6,-13.9c-9.2,0 -14.6,6.9 -14.6,13.9z" id="svg_5"/>
  <path fill="black" d="m251.6,26.7c0,-6.7 4.5,-10.6 9.7,-10.6c4,0 6.9,1.9 7.9,4.7l0.1,0c1,-2.8 3.9,-4.7 7.9,-4.7c5.2,0 9.7,3.9 9.7,10.6l0,16.5l-5.7,0l0,-16.5c0,-3.2 -2,-5 -4.4,-5c-2.7,0 -4.7,1.6 -4.7,5.7l0,15.7l-5.7,0l0,-15.7c0,-4.1 -2,-5.7 -4.7,-5.7c-2.3,0 -4.4,1.8 -4.4,5l0,16.5l-5.7,0l0,-16.5z" id="svg_6"/>
  <g id="svg_7">
   <circle cx="8.4" cy="7.7" r="5.2" id="svg_8"/>
   <circle cx="53.1" cy="7.7" r="5.2" id="svg_9"/>
   <circle cx="38.2" cy="7.7" r="5.2" id="svg_10"/>
   <circle cx="23.3" cy="7.7" r="5.2" id="svg_11"/>
   <circle cx="8.4" cy="37.4" r="5.2" id="svg_12"/>
   <circle cx="53.1" cy="37.4" r="5.2" id="svg_13"/>
   <circle class="st0" cx="38.2" cy="37.4" r="5.2" id="svg_14"/>
   <circle cx="23.3" cy="37.4" r="5.2" id="svg_15"/>
   <circle cx="8.4" cy="52.3" r="5.2" id="svg_16"/>
   <circle class="st0" cx="53.1" cy="52.3" r="5.2" id="svg_17"/>
   <circle cx="38.2" cy="52.3" r="5.2" id="svg_18"/>
   <circle cx="23.3" cy="52.3" r="5.2" id="svg_19"/>
   <circle cx="8.4" cy="22.6" r="5.2" id="svg_20"/>
   <circle cx="53.1" cy="22.6" r="5.2" id="svg_21"/>
   <circle cx="38.2" cy="22.6" r="5.2" id="svg_22"/>
   <circle cx="23.3" cy="22.6" r="5.2" id="svg_23"/>
  </g>
 </g>
</svg>